<?xml version="1.0" encoding="utf-8"?>
<!-- Generator: Adobe Illustrator 19.2.0, SVG Export Plug-In . SVG Version: 6.00 Build 0)  -->
<svg version="1.1" id="Слой_1" xmlns="http://www.w3.org/2000/svg" xmlns:xlink="http://www.w3.org/1999/xlink" x="0px" y="0px"
	 viewBox="0 0 185.6 22.3" style="enable-background:new 0 0 185.6 22.3;" xml:space="preserve">
<style type="text/css">
	.st0{fill:#111111;}
</style>
<g>
	<path class="st0" d="M13,15.5c0,2.2-0.6,3.9-1.7,5.1c-1.1,1.2-2.7,1.7-4.7,1.7c-2.1,0-3.7-0.7-4.8-2.1c-1.2-1.4-1.7-3.4-1.7-6v-6
		c0-2.6,0.6-4.6,1.7-6C2.9,0.7,4.5,0,6.6,0c2.1,0,3.7,0.6,4.7,1.7C12.4,2.8,13,4.6,13,6.9h-3c0-1.6-0.3-2.7-0.8-3.5S7.8,2.3,6.6,2.3
		c-1.2,0-2.1,0.5-2.7,1.5C3.3,4.7,3,6.2,3,8.1v6.1c0,1.9,0.3,3.4,0.9,4.4c0.6,1,1.5,1.5,2.7,1.5c1.2,0,2.1-0.3,2.6-1
		c0.5-0.7,0.8-1.8,0.9-3.5H13z"/>
	<path class="st0" d="M26.7,22.3h-3V0.6h3V22.3z"/>
	<path class="st0" d="M50.9,2.9h-5.3v19.3h-3V2.9h-5.3V0.6h13.5V2.9z"/>
	<path class="st0" d="M67.3,11l4-10.3h3.3l-5.8,13.8v7.8h-2.9v-8L60,0.6h3.3L67.3,11z"/>
	<path class="st0" d="M88.2,22.3h-3V0.6h3V22.3z"/>
	<path class="st0" d="M114.2,22.3h-3l-7.7-16l0,0v16h-3V0.6h3l7.7,15.9l0,0V0.6h3V22.3z"/>
	<path class="st0" d="M124.9,22.3V0.6h5.2c2.6,0,4.5,0.7,5.9,2.2c1.3,1.5,2,3.7,2,6.7v3.9c0,3-0.7,5.3-2,6.7c-1.3,1.4-3.3,2.2-6,2.2
		H124.9z M127.8,2.9v17h1.9c1.9,0,3.2-0.5,4-1.6c0.8-1,1.2-2.7,1.2-5V9.5c0-2.3-0.4-4-1.1-5c-0.8-1-2-1.5-3.9-1.5H127.8z"/>
	<path class="st0" d="M159.1,12.2h-7.6V20h8.8v2.3h-11.8V0.6h11.7v2.3h-8.7v7h7.6V12.2z"/>
	<path class="st0" d="M178.3,9.2l3.6-8.6h3.5l-5.3,10.7l5.6,10.9h-3.6l-3.7-8.7l-3.7,8.7h-3.5l5.5-10.9l-5.3-10.7h3.5L178.3,9.2z"/>
</g>
</svg>
